<svg width="250" height="200" viewBox="0 0 250 200" fill="none" xmlns="http://www.w3.org/2000/svg">
  <!-- Background Elements -->
  <rect x="30" y="40" width="190" height="120" rx="8" fill="#F3F4F6" />
  
  <!-- Dashboard Frame -->
  <rect x="45" y="55" width="160" height="90" rx="4" fill="white" stroke="#E5E7EB" stroke-width="2" />
  
  <!-- Chart Area 1 - Line Chart -->
  <rect x="55" y="65" width="70" height="35" rx="2" fill="#F9FAFB" />
  <path d="M60 85 L70 80 L80 85 L90 75 L100 82 L110 78" stroke="#4F46E5" stroke-width="2" stroke-linecap="round" />
  
  <!-- Chart Area 2 - Bar Chart -->
  <rect x="130" y="65" width="65" height="35" rx="2" fill="#F9FAFB" />
  <rect x="135" y="85" width="8" height="10" rx="1" fill="#4F46E5" />
  <rect x="148" y="80" width="8" height="15" rx="1" fill="#818CF8" />
  <rect x="161" y="75" width="8" height="20" rx="1" fill="#4F46E5" />
  <rect x="174" y="70" width="8" height="25" rx="1" fill="#818CF8" />
  
  <!-- Chart Area 3 - Gauge -->
  <rect x="55" y="105" width="65" height="30" rx="2" fill="#F9FAFB" />
  <circle cx="87" cy="120" r="12" fill="white" stroke="#E5E7EB" />
  <path d="M87 120 L87 112" stroke="#4F46E5" stroke-width="2" stroke-linecap="round" />
  <path d="M87 120 L95 123" stroke="#4F46E5" stroke-width="2" stroke-linecap="round" />
  
  <!-- Chart Area 4 - Status -->
  <rect x="130" y="105" width="65" height="30" rx="2" fill="#F9FAFB" />
  <circle cx="143" cy="120" r="5" fill="#10B981" />
  <circle cx="163" cy="120" r="5" fill="#F59E0B" />
  <circle cx="183" cy="120" r="5" fill="#EF4444" />
  
  <!-- Notification Dot -->
  <circle cx="180" cy="60" r="4" fill="#EF4444" />
  
  <!-- Connection Lines -->
  <line x1="165" y1="155" x2="205" y2="175" stroke="#9CA3AF" stroke-width="1" stroke-dasharray="3 2" />
  <line x1="85" y1="155" x2="45" y2="175" stroke="#9CA3AF" stroke-width="1" stroke-dasharray="3 2" />
  
  <!-- Devices -->
  <rect x="25" y="175" width="40" height="20" rx="3" fill="#E5E7EB" />
  <rect x="32" y="180" width="26" height="10" rx="1" fill="white" />
  
  <rect x="185" y="175" width="40" height="20" rx="3" fill="#E5E7EB" />
  <rect x="192" y="180" width="26" height="10" rx="1" fill="white" />
  
  <!-- Cloud Icon -->
  <path d="M125 30 C115 30, 107 38, 107 48 C107 48, 95 48, 95 60 C95 72, 105 75, 125 75 C145 75, 155 72, 155 60 C155 48, 143 48, 143 48 C143 38, 135 30, 125 30Z" fill="white" stroke="#9CA3AF" stroke-width="1" />
</svg>